<?xml version="1.0" encoding="utf-8"?>
<!-- Generator: Adobe Illustrator 21.0.2, SVG Export Plug-In . SVG Version: 6.00 Build 0)  -->
<svg version="1.1" xmlns="http://www.w3.org/2000/svg" xmlns:xlink="http://www.w3.org/1999/xlink" x="0px" y="0px"
	 viewBox="0 0 1024 768" style="enable-background:new 0 0 1024 768;" xml:space="preserve">
<style type="text/css">
	.st0{display:none;}
	.st1{fill:#ffffe0;}
	.st2{fill:#BE6A56;}
	.st3{fill:#D48E84;}
	.st4{fill:#FFFFFF;}
	.st5{fill:#4B3E41;}
	.st6{fill:#833D35;}
	.st7{fill:#28221E;}
</style>
<g id="Layer_1" class="st0">
	
		<image style="display:inline;overflow:visible;" width="720" height="1280" xlink:href="../../../../../Google Drive/Web Design/ai portrait/IMG_1346.jpg"  transform="matrix(1.0194 0 0 1.0194 110 -276.4445)">
	</image>
</g>
<g id="Layer_11">
	<circle class="st1" cx="527" cy="377" r="336"/>
   
</g>
<g id="Layer_5">
	<g>
		<path class="st2" d="M656.2,480.2c0,0,15-3,18-18c0,0,4.3-10.8,15-39c3.7-9.6,8-11,5-41s-44,16-44,16L656.2,480.2z"/>
		<path class="st2" d="M391.2,395.2c0,0-14-16-20-5c0,0-3,6,0,15c0,0,5.5,16.3,9,24c4.9,10.8,2,32,18,44L391.2,395.2z"/>
		<path class="st3" d="M385.7,389.7c0,0-8-40,19-97s112.5-66.5,112.5-66.5s131-22,129.5,87.5c0,0,22.5,54.5,20.5,96.5
			s-4.5,70.5-4.5,70.5s-1,53-28,73s-60,45-60,45s-16,15-54,13c0,0-24,3-38-8s-50-40-50-40s-33-29-36-84S385.7,389.7,385.7,389.7z"/>
		<path d="M681.2,322.2c1,32-15,67-15,67c-22-55-35-114-35-114s3-11-10-20c-13-9-87-35-161-9s-73,121-73,121c-19-29-14-74-14-74
			c-16,12-10,35-10,35c-15-17,13-75,13-75c-14,7-17,30-17,30c2-39,21-41,21-41c6-9,0-14,0-14c-7,1-10,9-10,9c-1-15,14-32,14-32
			c14-5,21-18,21-18c13-23,43-26,43-26c17-18,37-10,37-10s-1-16,65-6s99,52,99,52c3-15-23-41-23-41c42,29,37,81,37,81s6.7,2.4,9,9
			C678.5,264.3,680.1,286,681.2,322.2z"/>
		<path class="st4" d="M555.2,393.2c0,0,31,17,52-6c0,0-12.1-12.1-30-10C560.2,379.2,555.2,393.2,555.2,393.2z"/>
		<path class="st5" d="M580.8,399.2L580.8,399.2c-6,0.3-11.3-4.3-11.6-10.4l0,0c-0.3-6,4.3-11.3,10.4-11.6l0,0
			c6-0.3,11.3,4.3,11.6,10.4v0C591.5,393.6,586.9,398.8,580.8,399.2z"/>
		<path class="st4" d="M429.8,391.2c0,0,28.8,20.5,52.3,0.1c0,0-10.6-13.4-28.6-13.4C436.4,377.8,429.8,391.2,429.8,391.2z"/>
		<path class="st5" d="M454.5,400.1L454.5,400.1c-6-0.4-10.7-5.6-10.3-11.6l0,0c0.4-6,5.6-10.7,11.6-10.3h0
			c6,0.4,10.7,5.6,10.3,11.6v0C465.8,395.8,460.6,400.4,454.5,400.1z"/>
		<path class="st6" d="M489.2,468.2c0,0,33,40,67-6C556.2,462.2,508.2,480.2,489.2,468.2z"/>
		<path class="st6" d="M472.2,526.2c0,0,92-1,135-30c-21.3,35.2-45.7,54.1-71,59C500.2,562.2,472.2,526.2,472.2,526.2z"/>
		<path class="st4" d="M482.2,530.2c0,0,82-2.4,114-24c-15.8,26.2-43.6,41.7-62.4,45.3C507,556.7,482.2,530.2,482.2,530.2z"/>
		<path d="M550.2,356.2c0,0-11-10,2-16s26-19,44-13s33,22,38,33c0,0-16-14-32-17s-40,11-40,11S555.2,360.2,550.2,356.2z"/>
		<path d="M407.2,375.2c0,0,1-22,16-32s51-2,56,3s3,13,3,13s-2,5-14-1S424.2,347.2,407.2,375.2"/>
		<path class="st7" d="M671.2,369.2l-6-8c0,0-30-16-70-12s-49,9-59,16s-17,5-17,5s-11,0-17-5s-36-28-108-13l-14,6l2,24c0,0,6,5,7,13
			c0,0,6,25,20,35s62,4,62,4s21-2,31-31c10-29,22-20,22-20s2,0,11,20c9.9,21.9,20,29,31,33s51,4,59,0s17-5,25-31s7-30,13-31l7,7
			C670.2,381.2,674.2,371.2,671.2,369.2z M497.2,401.2c0,0-8,28-37,29s-48,0-55-11s-10-13-13-45c0,0-7-24,53-22
			C445.2,352.2,524.2,354.2,497.2,401.2z M648.2,381.2c-2,17-2,17-2,17s-2,12-8,22s-13,11-24,13s-44,1-55-6s-17-18-22-33
			c0,0-4-19,4-25c8.6-6.5,14-13,51-14s47,5,47,5S650.2,364.2,648.2,381.2z"/>
	
    </g>

</g>

</svg>
